<?xml version="1.0" standalone="no"?>
<!DOCTYPE svg PUBLIC "-//W3C//DTD SVG 1.1//EN" "http://www.w3.org/Graphics/SVG/1.1/DTD/svg11.dtd" >
<svg xmlns="http://www.w3.org/2000/svg">
<metadata>
This is a custom SVG webfont generated by Font Squirrel.
Copyright   : Typeface  your company 2005 All Rights Reserved
</metadata>
<defs>
<font id="LicensePlateRegular" horiz-adv-x="899" >
<font-face units-per-em="2048" ascent="1638" descent="-410" />
<missing-glyph horiz-adv-x="500" />
<glyph unicode=" " />
<glyph unicode="!" horiz-adv-x="569" />
<glyph unicode="&#x22;" horiz-adv-x="727" />
<glyph unicode="#" horiz-adv-x="1139" />
<glyph unicode="$" horiz-adv-x="1139" />
<glyph unicode="%" horiz-adv-x="1821" />
<glyph unicode="&#x26;" horiz-adv-x="1366" />
<glyph unicode="'" horiz-adv-x="391" />
<glyph unicode="(" horiz-adv-x="682" />
<glyph unicode=")" horiz-adv-x="682" />
<glyph unicode="*" horiz-adv-x="797" />
<glyph unicode="+" horiz-adv-x="1196" />
<glyph unicode="," horiz-adv-x="569" />
<glyph unicode="-" horiz-adv-x="902" d="M287 942q0 68 88 68h152q88 0 88 -71v-115q0 -72 -90 -72h-154q-84 0 -83 75z" />
<glyph unicode="." horiz-adv-x="569" />
<glyph unicode="/" horiz-adv-x="569" />
<glyph unicode="0" d="M110 411v926q0 296 339 296q336 0 336 -294v-938q0 -365 -337 -365q-338 0 -338 375zM299 426q1 -212 154 -210q153 1 153 210v873q1 132 -155 133q-152 1 -152 -133v-873z" />
<glyph unicode="1" d="M254 1435v57q12 74 75 83q57 0 92 44q12 13 32 16h105q51 0 52 -44l-1 -1523v-1q0 -31 -50 -31h-111q-45 0 -45 32v1215q0 89 -30 89h-68q-51 0 -51 63z" />
<glyph unicode="2" d="M102 124v122q40 491 333 832q79 95 140 152q16 28 16 76q1 120 -141.5 120t-142.5 -120q-9 -48 -75 -48h-61q-64 0 -69 48q0 325 349 325q343 0 343 -325v-48q-23 -133 -155 -252q-251 -307 -324 -700q-11 -60 44 -60h378q57 0 57 -48v-109q0 -55 -56 -55h-565 q-71 0 -71 90z" />
<glyph unicode="3" d="M112 321v16q0 67 46 67h117q33 -30 30 -54q12 -113 153 -114q141 3 142 168l-1 220q1 107 -73 131q-102 31 -102 90v69q0 39 103 80q75 41 72 144v166q0 127 -141 130q-154 0 -154 -123q0 -47 -131 -47q-61 0 -60 80v17q0 267 329 267h31q306 0 318 -284v-281 q0 -61 -32 -110q-51 -31 -51 -80q-1 -23 49 -87q33 -53 33 -162v-289q0 -299 -331 -299q-347 0 -347 285z" />
<glyph unicode="4" d="M125 381v103q5 61 24 112l285 988q17 43 60 43h184q42 0 42 -40v-1023q0 -62 25 -62q41 0 45 -40v-88q-4 -46 -40 -48q-30 0 -30 -60v-162q0 -69 -59 -69h-58q-59 0 -59 68v177q0 46 -46 46h-316q-57 2 -57 55zM310 542q-16 -52 72 -52h77q85 -8 85 66v570q0 20 -49 11 q-17 -7 -37 -65z" />
<glyph unicode="5" d="M100 318q0 63 58 63q124 0 135 -63q45 -84 157 -87q130 3 155 87v486q-3 60 -75 111q-47 20 -84 20q-68 0 -124 -48q-40 -44 -40 -95q0 -26 -140 -29q-42 0 -42 61v740q0 63 66 63h552q57 0 57 -51v-71q0 -51 -50 -51h-359q-84 0 -84 -51v-258q0 -54 52 -54q64 20 132 10 q192 -39 270 -168q39 -59 39 -157v-419q0 -318 -325 -321q-316 16 -350 282z" />
<glyph unicode="6" horiz-adv-x="898" d="M111 351v947q0 337 291 337h76q189 0 266 -172q24 -53 32 -113q0 -48 -40 -66q-138 -12 -138 19q2 152 -156 152q-148 0 -148 -171l3 -268q7 -43 36 -49q58 12 112 7q334 -8 334 -306v-311q0 -321 -295 -321h-61q-309 0 -312 315zM302 360q0 -137 148 -140q155 2 155 105 v310q-5 127 -155 129q-148 0 -148 -129v-275z" />
<glyph unicode="7" horiz-adv-x="898" d="M100 1492v108q14 28 57 28h545q73 0 73 -31l1 -89q-1 -81 -32 -132q-39 -58 -129 -367.5t-151 -816.5q-14 -155 -63 -155l-61 -1q-88 0 -88 60q30 368 114 695t166 553l26 83q-6 28 -50 28h-349q-45 0 -59 37z" />
<glyph unicode="8" horiz-adv-x="902" d="M101 411v315q0 67 49 117l33 32q16 16 0 29l-36 29q-46 39 -46 119v285q0 295 346 295h4q327 0 327 -293v-287q0 -80 -47 -121l-29 -26q-19 -14 0 -30l31 -32q45 -50 45 -116v-326q0 -365 -331 -368q-338 0 -346 378zM280 375q0 -165 169 -165q150 0 150 165v260 q0 158 -150 158q-169 0 -169 -155v-263zM280 1173q0 -201 169 -201q150 0 150 198v125q0 157 -150 157q-169 0 -169 -157v-122z" />
<glyph unicode="9" horiz-adv-x="898" d="M111 1033v281q0 321 295 321h61q309 0 312 -315v-947q0 -337 -291 -337h-76q-189 0 -266 172q-24 53 -32 113q0 48 40 66q138 12 138 -19q-2 -152 156 -152q148 0 148 171l-3 298q-7 43 -36 49q-58 -12 -112 -7q-334 8 -334 306zM285 1066q5 -127 155 -129q148 0 148 129 v245q0 137 -148 140q-155 -2 -155 -105v-280z" />
<glyph unicode=":" horiz-adv-x="569" />
<glyph unicode=";" horiz-adv-x="569" />
<glyph unicode="&#x37e;" horiz-adv-x="569" />
<glyph unicode="&#x3c;" horiz-adv-x="1196" />
<glyph unicode="=" horiz-adv-x="1196" />
<glyph unicode="&#x3e;" horiz-adv-x="1196" />
<glyph unicode="?" horiz-adv-x="1139" />
<glyph unicode="@" horiz-adv-x="2079" />
<glyph unicode="A" d="M110 108l228 1464q8 45 40 64h124q38 -20 45 -61l235 -1459q0 -72 -56 -80h-104q-52 23 -52 116q-6 130 -67 136l-100 -1q-66 -3 -75 -122l-10 -85q-10 -42 -54 -44h-109q-45 22 -45 72zM366 558v-17q0 -61 27 -64h97h2q28 0 28 59q0 10 -1 23l-25 201q-8 59 -42 64 q-47 -1 -54 -61l-20 -127z" />
<glyph unicode="B" d="M100 118l1 1461q4 53 58 57h291q81 -5 112 -12q128 -45 175.5 -116t52.5 -116l-1 -332q-7 -113 -67 -172v-44q33 -41 48 -88t19 -120v-298q-7 -297 -193 -298h-436q-60 0 -60 78zM300 307q0 -69 43 -69h107q131 0 131 98v340q0 93 -130 93h-108q-41 -1 -43 -85v-377z M301 1049v-11q0 -78 41 -78h109q131 1 130 152v156q0 160 -131 160h-107q-43 0 -42 -89v-290z" />
<glyph unicode="C" d="M102 378v928q0 325 348 329q338 -4 338 -294q0 -35 -55 -35h-84q-49 0 -49 35q0 88 -150 88q-152 0 -152 -123v-928q0 -138 152 -138q150 0 149 104q1 34 55 34h71q63 0 62 -32q1 -312 -337 -312q-348 0 -348 344z" />
<glyph unicode="D" d="M102 126v1422q0 80 40 83h324q294 0 296 -268v-1047q-1 -282 -296 -282h-304q-60 2 -60 92zM288 308q0 -68 56 -68h122q116 0 116 138v907q0 144 -116 144h-114q-64 0 -64 -85v-1036z" />
<glyph unicode="E" d="M110 104v1473q0 52 44 52h568q68 -3 68 -64v-54q0 -77 -66 -78h-386q-37 0 -36 -43l1 -376q0 -45 59 -45h188q52 0 52 -68v-72q-4 -56 -52 -56h-200h-1q-47 0 -47 -64v-423q0 -49 40 -49h381q63 -8 63 -62v-5v-65q1 -68 -65 -68h-541q-70 1 -70 67z" />
<glyph unicode="F" d="M110 104v1473q0 52 44 52h568q68 -3 68 -64v-54q0 -77 -66 -78h-386q-37 0 -36 -43l1 -376q0 -45 59 -45h188q52 0 52 -68v-72q-4 -56 -52 -56h-200h-1q-47 0 -47 -64v-598q0 -74 -67 -74h-55q-70 1 -70 67z" />
<glyph unicode="G" horiz-adv-x="902" d="M116 364v947q0 330 316 330q343 0 343 -332q0 -36 -76 -36q-91 0 -91 36q0 160 -176 160q-149 0 -149 -160v-943q0 -137 151 -139q174 2 174 139v162q0 109 -107 109q-69 0 -69 73q0 80 69 80h204q70 0 70 -68v-356q0 -330 -342 -330q-317 0 -317 328z" />
<glyph unicode="H" d="M90 98v1458q0 76 71 80h82q67 0 67 -75v-529q-1 -60 47 -74h143q64 7 62 72v543q7 62 71 63h91q66 0 72 -75v-1456q0 -68 -66 -69h-95q-71 2 -74 55v598q0 68 -57 79h-128q-67 -7 -66 -73v-601q-2 -57 -52 -58h-108q-58 2 -60 62z" />
<glyph unicode="I" d="M206 90v99q0 60 57 60h51q41 0 41 42v1081q0 45 -36 45h-56q-57 0 -57 55l1 92q-1 68 56 68h385q54 0 55 -67l-1 -93q0 -55 -55 -56l-56 1q-7 1 -13 1q-35 0 -35 -46v-1028q0 -95 35 -95h69q55 -1 55 -59v-100q0 -54 -55 -54h-384q-57 0 -57 54z" />
<glyph unicode="J" d="M100 344q0 56 72 56h65q65 0 65 -56q2 -112 151 -112q139 3 137 132v1235q0 37 28 37h129q29 0 29 -37v-1287q-4 -274 -320 -276h-12q-340 0 -344 308z" />
<glyph unicode="K" horiz-adv-x="902" d="M112 83v1494q0 58 46 58h100q46 0 46 -64v-372q0 -44 28 0l201 395q16 41 44 41h156q41 0 41 -26q0 -11 -7 -25l-252 -505q-10 -20 -10 -42q0 -19 7 -40l291 -904q5 -15 5 -26q0 -31 -41 -31h-118q-40 0 -59 62l-184 590q-18 51 -48 51h-20q-34 0 -34 -34v-631q1 -4 1 -8 q0 -30 -41 -30h-108q-44 0 -44 47z" />
<glyph unicode="L" horiz-adv-x="902" d="M112 88v1475q0 68 56 68h79q57 0 58 -64l-1 -1295q0 -40 48 -40h355q83 0 84 -57l-1 -67q1 -72 -82 -72h-540q-56 0 -56 52z" />
<glyph unicode="M" d="M110 90v1484q0 61 60 61h69q43 -1 54 -39l121 -392q3 -19 28 -19h17q17 0 21 19l122 392q11 38 45 39h79q53 0 53 -61l1 -1484q-1 -54 -60 -54h-64q-55 0 -56 54v680q0 39 -34 39q-32 0 -62 -123q-23 -129 -41 -129h-25q-18 0 -48 128q-26 120 -64 120q-33 0 -33 -35 l1 -680q0 -54 -76 -54h-48q-59 0 -60 54z" />
<glyph unicode="N" d="M110 90v1484q0 61 65 61h59q53 0 71 -61l213 -692q23 -64 48 -68h1q25 0 24 57v703q1 61 55 61h88q45 0 45 -61v-1484q0 -54 -44 -54h-81q-56 0 -76 46l-216 736q-11 36 -32 41q-24 -2 -25 -89v-680q0 -54 -67 -54h-61q-67 0 -67 54z" />
<glyph unicode="O" d="M110 408v943q0 284 340 284q329 0 329 -284v-928q-1 -387 -329 -387q-340 0 -340 372zM281 1298l12 -917q0 -158 155 -159q152 1 152 159v917q0 157 -150 157q-169 0 -169 -157z" />
<glyph unicode="P" d="M110 108v1457q0 68 51 68h269q349 0 349 -285v-284q0 -268 -283 -268h-131q-63 0 -63 -83v-608q0 -69 -70 -69h-58q-64 0 -64 72zM302 1067q0 -91 56 -91h113q126 0 127 99v251q0 60 -40.5 91.5t-110.5 31.5h-57q-88 0 -88 -64v-318z" />
<glyph unicode="Q" d="M110 381v918q0 336 341 336q328 0 328 -337v-917q0 -83 -29 -145q-11 -20 -11 -44q0 -29 15 -64q0 -62 -58 -92h-36q-39 25 -73 25q-7 0 -13 -1q-78 -24 -124 -24q-340 0 -340 345zM293 325q0 -115 121 -115q17 0 37 2q14 3 23 11v16l-64 84q-9 20 -4 44q27 45 66 56 q2 1 5 1q23 0 61 -45q25 -21 40 -21q22 0 22 44v925q0 128 -151 129q-156 0 -156 -128v-1003z" />
<glyph unicode="R" d="M110 108v1457q0 68 51 68h269q356 0 356 -296v-300q0 -164 -188 -233q-9 -5 0 -34l188 -662q3 -12 3 -22q0 -50 -63 -50h-55q-58 0 -73 72l-148 625q-9 51 -45 61h-54q-60 -1 -60 -78v-608q0 -72 -65 -72h-52q-64 0 -64 72zM291 1034q0 -91 56 -91h124q99 0 127 99v295 q0 60 -40.5 91.5t-110.5 31.5h-68q-88 0 -88 -64v-362z" />
<glyph unicode="S" horiz-adv-x="902" d="M102 1298q0 337 342 337q327 0 327 -337q0 -84 -61 -84h-69q-61 0 -61 84q0 151 -138 151q-134 0 -134 -151q0 -131 63 -186l210 -249q155 -146 190 -482q0 -345 -328 -345q-340 0 -340 293q0 52 104 52q102 0 101 -38q0 -130 135 -130q138 0 138 120l-1 48 q-48 291 -271 485l-122 142q-85 97 -85 290z" />
<glyph unicode="T" horiz-adv-x="895" d="M110 1596q0 36 39 36h630q34 0 34 -37v-137q0 -34 -25 -34h-187q-38 0 -37 -41l-1 -1315q0 -32 -29 -32h-140q-32 0 -32 32l-1 1315q0 41 -38 41h-182q-31 0 -30 37z" />
<glyph unicode="U" d="M110 381v1176q0 78 70 78h47q75 0 76 -78v-1176q-1 -168 148 -168t149 168l1 1176q-1 78 57 78h64q57 0 57 -78v-1176q1 -345 -328 -345q-341 0 -341 345z" />
<glyph unicode="V" d="M110 1550q13 85 62 85h62q70 0 75 -85l116 -652q11 -63 39 -66h2q26 0 31 70l107 648q9 85 70 85h80q48 0 56 -85l-253 -1403q-3 -99 -95 -108q-111 15 -110 108z" />
<glyph unicode="W" d="M110 1547q0 85 60 85h60q48 0 56 -85l24 -473q0 -47 35 -47t43 47l30 474q6 63 42 64q33 0 35 -65l41 -473q9 -47 39.5 -47t30.5 47l21 473q1 85 65 85h62q50 0 56 -85l-60 -1403q-12 -108 -68 -108h-68q-49 0 -63 108l-48 347q-4 51 -42 57q-35 -11 -35 -55l-38 -349 q-9 -108 -74 -108h-52q-77 0 -85 108z" />
<glyph unicode="X" d="M110 74q0 17 8 40l245 681q6 17 6 35q0 21 -8 43l-243 674q-7 24 -7 41q0 44 45 44h104q31 0 58 -85l98 -247q21 -67 51 -67h1h1q24 0 47 67l98 247q28 83 46 85h106q59 0 59 -47q0 -16 -7 -38l-250 -674q-8 -21 -8 -40t8 -38l250 -681q10 -22 10 -38q0 -40 -62 -40h-95 q-26 0 -57 78l-103 274q-13 40 -43 42q-38 -1 -50 -39l-100 -277q-30 -78 -57 -78h-106q-45 0 -45 38z" />
<glyph unicode="Y" horiz-adv-x="898" d="M110 1587q0 45 42 45h91q30 0 55 -73l135 -441q17 -21 34 -21q16 0 32 19l147 443q23 72 47 73h83q42 -1 42 -50q0 -10 -2 -23l-243 -773q-7 -15 -7 -45v-652q0 -55 -50 -55l-103 -1q-49 1 -49 54v654q0 29 -6 45l-245 773q-3 16 -3 28z" />
<glyph unicode="Z" d="M104 77q0 16 7 36l443 1286q8 25 -22 25h-387q-34 2 -34 39v133q0 39 38 39h630q42 0 42 -39q0 -18 -8 -43l-434 -1251q-6 -17 -6 -29q0 -29 32 -29h374q34 0 34 -37v-137q0 -34 -34 -34h-638q-17 0 -25 12q-12 9 -12 29z" />
<glyph unicode="[" horiz-adv-x="569" />
<glyph unicode="\" horiz-adv-x="569" />
<glyph unicode="]" horiz-adv-x="569" />
<glyph unicode="^" horiz-adv-x="961" />
<glyph unicode="_" horiz-adv-x="1139" />
<glyph unicode="`" horiz-adv-x="682" />
<glyph unicode="a" d="M110 108l228 1464q8 45 40 64h124q38 -20 45 -61l235 -1459q0 -72 -56 -80h-104q-52 23 -52 116q-6 130 -67 136l-100 -1q-66 -3 -75 -122l-10 -85q-10 -42 -54 -44h-109q-45 22 -45 72zM366 558v-17q0 -61 27 -64h97h2q28 0 28 59q0 10 -1 23l-25 201q-8 59 -42 64 q-47 -1 -54 -61l-20 -127z" />
<glyph unicode="b" d="M100 82l1 1461q4 53 58 57h291q81 -5 112 -12q128 -45 175.5 -116t52.5 -116l-1 -332q-7 -113 -67 -172v-44q33 -41 48 -88t19 -120v-298q-7 -297 -193 -298h-436q-60 0 -60 78zM300 271q0 -69 43 -69h107q131 0 131 98v340q0 93 -130 93h-108q-41 -1 -43 -85v-377z M301 1013v-11q0 -78 41 -78h109q131 1 130 152v156q0 160 -131 160h-107q-43 0 -42 -89v-290z" />
<glyph unicode="c" d="M102 378v928q0 325 348 329q338 -4 338 -294q0 -35 -55 -35h-84q-49 0 -49 35q0 88 -150 88q-152 0 -152 -123v-928q0 -138 152 -138q150 0 149 104q1 34 55 34h71q63 0 62 -32q1 -312 -337 -312q-348 0 -348 344z" />
<glyph unicode="d" d="M96 94v1422q0 80 40 80h420q183 -4 200 -196v-1200q-7 -180 -212 -196h-391q-57 0 -57 90zM292 252q0 -56 52 -56h152q84 6 84 104v992q1 102 -84 112h-144q-56 0 -60 -48v-1104z" />
<glyph unicode="e" d="M110 71v1473q0 52 44 52h568q68 -3 68 -64v-54q0 -77 -66 -78h-386q-37 0 -36 -43l1 -376q0 -45 59 -45h188q52 0 52 -68v-72q-4 -56 -52 -56h-200h-1q-47 0 -47 -64v-423q0 -49 40 -49h381q63 -8 63 -62v-5v-65q1 -68 -65 -68h-541q-70 1 -70 67z" />
<glyph unicode="f" d="M110 71v1473q0 52 44 52h568q68 -3 68 -64v-54q0 -77 -66 -78h-386q-37 0 -36 -43l1 -376q0 -45 59 -45h188q52 0 52 -68v-72q-4 -56 -52 -56h-200h-1q-47 0 -47 -64v-598q0 -74 -67 -74h-55q-70 1 -70 67z" />
<glyph unicode="g" horiz-adv-x="902" d="M116 366v943q-1 332 316 332q343 0 343 -332q0 -36 -76 -36q-91 0 -91 36q0 160 -176 160q-149 0 -149 -160v-943q0 -137 151 -139q174 2 174 139v162q0 109 -107 109q-69 0 -69 73q0 80 69 80h204q70 0 70 -68v-356q0 -330 -342 -330q-318 0 -317 330z" />
<glyph unicode="h" d="M90 62v1458q0 76 71 80h82q67 0 67 -75v-529q-1 -60 47 -74h143q64 7 62 72v543q7 62 71 63h91q66 0 72 -75v-1456q0 -68 -66 -69h-95q-71 2 -74 55v598q0 68 -57 79h-128q-67 -7 -66 -73v-601q-2 -57 -52 -58h-108q-58 2 -60 62z" />
<glyph unicode="i" d="M206 90v99q0 60 57 60h51q41 0 41 42v1090q0 45 -36 45h-56q-57 0 -57 55v93q0 67 57 67h384q55 0 55 -67v-93q0 -55 -55 -55h-56q-48 0 -48 -45v-1037q0 -95 35 -95h69q55 -1 55 -59v-100q0 -54 -55 -54h-384q-57 0 -57 54z" />
<glyph unicode="j" d="M100 344q0 56 72 56h65q65 0 65 -56q2 -112 151 -112q139 3 137 132v1235q0 37 28 37h129q29 0 29 -37v-1287q-4 -274 -320 -276h-12q-340 0 -344 308z" />
<glyph unicode="k" horiz-adv-x="902" d="M112 83v1494q0 58 46 58h100q46 0 46 -64v-372q0 -44 28 0l201 395q16 41 44 41h156q41 0 41 -26q0 -11 -7 -25l-252 -505q-10 -20 -10 -42q0 -19 7 -40l291 -904q5 -15 5 -26q0 -31 -41 -31h-118q-40 0 -59 62l-184 590q-18 51 -48 51h-20q-34 0 -34 -34v-631q1 -4 1 -8 q0 -30 -41 -30h-108q-44 0 -44 47z" />
<glyph unicode="l" horiz-adv-x="902" d="M112 88v1476q0 68 56 68h79q57 0 58 -64l-1 -1296q0 -40 48 -40h355q83 0 84 -57l-1 -67q1 -72 -82 -72h-540q-56 0 -56 52z" />
<glyph unicode="m" d="M110 90v1484q0 61 60 61h69q43 -1 54 -39l121 -392q3 -19 28 -19h17q17 0 21 19l122 392q11 38 45 39h79q53 0 53 -61l1 -1484q-1 -54 -60 -54h-64q-55 0 -56 54v680q0 39 -34 39q-32 0 -62 -123q-23 -129 -41 -129h-25q-18 0 -48 128q-26 120 -64 120q-33 0 -33 -35 l1 -680q0 -54 -76 -54h-48q-59 0 -60 54z" />
<glyph unicode="n" d="M110 90v1484q0 61 65 61h59q53 0 71 -61l213 -692q23 -64 48 -68h1q25 0 24 57v703q1 61 55 61h88q45 0 45 -61v-1484q0 -54 -44 -54h-81q-56 0 -76 46l-216 736q-11 36 -32 41q-24 -2 -25 -89v-680q0 -54 -67 -54h-61q-67 0 -67 54z" />
<glyph unicode="o" d="M110 408v943q0 284 340 284q329 0 329 -284v-928q-1 -387 -329 -387q-340 0 -340 372zM293 381q0 -158 155 -159q152 1 152 159v893q0 184 -150 184q-157 0 -157 -182v-895z" />
<glyph unicode="p" d="M110 108v1457q0 68 51 68h269q349 0 349 -285v-284q0 -268 -283 -268h-131q-63 0 -63 -83v-608q0 -69 -70 -69h-58q-64 0 -64 72zM302 1067q0 -91 56 -91h113q126 0 127 99v251q0 60 -40.5 91.5t-110.5 31.5h-57q-88 0 -88 -64v-318z" />
<glyph unicode="q" d="M110 381v918q0 336 341 336q328 0 328 -337v-917q0 -83 -29 -145q-11 -20 -11 -44q0 -29 15 -64q0 -62 -58 -92h-36q-39 25 -73 25q-7 0 -13 -1q-78 -24 -124 -24q-340 0 -340 345zM293 325q0 -115 121 -115q17 0 37 2q14 3 23 11v16l-64 84q-9 20 -4 44q27 45 66 56 q2 1 5 1q23 0 61 -45q25 -21 40 -21q22 0 22 44v925q0 128 -151 129q-156 0 -156 -128v-1003z" />
<glyph unicode="r" d="M110 108v1457q0 68 51 68h269q356 0 356 -296v-300q0 -164 -188 -233q-9 -5 0 -34l188 -662q3 -12 3 -22q0 -50 -63 -50h-55q-58 0 -73 72l-148 625q-9 51 -45 61h-54q-60 -1 -60 -78v-608q0 -72 -65 -72h-52q-64 0 -64 72zM291 1034q0 -91 56 -91h124q99 0 127 99v295 q0 60 -40.5 91.5t-110.5 31.5h-68q-88 0 -88 -64v-362z" />
<glyph unicode="s" horiz-adv-x="902" d="M102 1298q0 337 342 337q327 0 327 -337q0 -84 -61 -84h-69q-61 0 -61 84q0 151 -138 151q-134 0 -134 -151q0 -131 63 -186l210 -249q155 -146 190 -482q0 -345 -328 -345q-340 0 -340 293q0 52 104 52q102 0 101 -38q0 -130 135 -130q138 0 138 120l-1 48 q-48 291 -271 485l-122 142q-85 97 -85 290z" />
<glyph unicode="t" horiz-adv-x="895" d="M110 1596q0 36 39 36h630q34 0 34 -37v-137q0 -34 -25 -34h-187q-38 0 -37 -41l-1 -1315q0 -32 -29 -32h-140q-32 0 -32 32l-1 1315q0 41 -38 41h-182q-31 0 -30 37z" />
<glyph unicode="u" d="M110 381v1176q0 78 70 78h47q75 0 76 -78v-1176q-1 -168 148 -168t149 168l1 1176q-1 78 57 78h64q57 0 57 -78v-1176q1 -345 -328 -345q-341 0 -341 345z" />
<glyph unicode="v" d="M110 1550q13 85 62 85h62q70 0 75 -85l116 -652q11 -63 39 -66h2q26 0 31 70l107 648q9 85 70 85h80q48 0 56 -85l-253 -1403q-3 -99 -95 -108q-111 15 -110 108z" />
<glyph unicode="w" d="M110 1547q0 85 60 85h60q48 0 56 -85l24 -473q0 -47 35 -47t43 47l30 474q6 63 42 64q33 0 35 -65l41 -473q9 -47 39.5 -47t30.5 47l21 473q1 85 65 85h62q50 0 56 -85l-60 -1403q-12 -108 -68 -108h-68q-49 0 -63 108l-48 347q-4 51 -42 57q-35 -11 -35 -55l-38 -349 q-9 -108 -74 -108h-52q-77 0 -85 108z" />
<glyph unicode="x" d="M110 74q0 17 8 40l245 681q6 17 6 35q0 21 -8 43l-243 674q-7 24 -7 41q0 44 45 44h104q31 0 58 -85l98 -247q21 -67 51 -67h1h1q24 0 47 67l98 247q28 83 46 85h106q59 0 59 -47q0 -16 -7 -38l-250 -674q-8 -21 -8 -40t8 -38l250 -681q10 -22 10 -38q0 -40 -62 -40h-95 q-26 0 -57 78l-103 274q-13 40 -43 42q-38 -1 -50 -39l-100 -277q-30 -78 -57 -78h-106q-45 0 -45 38z" />
<glyph unicode="y" horiz-adv-x="898" d="M110 1587q0 45 42 45h91q30 0 55 -73l135 -441q17 -21 34 -21q16 0 32 19l147 443q23 72 47 73h83q42 -1 42 -50q0 -10 -2 -23l-243 -773q-7 -15 -7 -45v-652q0 -55 -50 -55l-103 -1q-49 1 -49 54v654q0 29 -6 45l-245 773q-3 16 -3 28z" />
<glyph unicode="z" d="M104 77q0 16 7 36l443 1286q8 25 -22 25h-387q-34 2 -34 39v133q0 39 38 39h630q42 0 42 -39q0 -18 -8 -43l-434 -1251q-6 -17 -6 -29q0 -29 32 -29h374q34 0 34 -37v-137q0 -34 -34 -34h-638q-17 0 -25 12q-12 9 -12 29z" />
<glyph unicode="{" horiz-adv-x="684" />
<glyph unicode="|" horiz-adv-x="532" />
<glyph unicode="}" horiz-adv-x="684" />
<glyph unicode="~" horiz-adv-x="1196" />
<glyph unicode="&#xa0;" />
<glyph unicode="&#xa1;" horiz-adv-x="682" />
<glyph unicode="&#xa2;" horiz-adv-x="1139" />
<glyph unicode="&#xa3;" horiz-adv-x="1139" />
<glyph unicode="&#xa4;" horiz-adv-x="1139" />
<glyph unicode="&#xa5;" horiz-adv-x="1139" />
<glyph unicode="&#xa6;" horiz-adv-x="532" />
<glyph unicode="&#xa7;" horiz-adv-x="1139" />
<glyph unicode="&#xa8;" horiz-adv-x="682" />
<glyph unicode="&#xa9;" horiz-adv-x="1509" />
<glyph unicode="&#xaa;" horiz-adv-x="758" />
<glyph unicode="&#xab;" horiz-adv-x="1139" />
<glyph unicode="&#xac;" horiz-adv-x="1196" />
<glyph unicode="&#xad;" horiz-adv-x="902" d="M287 942q0 68 88 68h152q88 0 88 -71v-115q0 -72 -90 -72h-154q-84 0 -83 75z" />
<glyph unicode="&#xae;" horiz-adv-x="1509" />
<glyph unicode="&#xaf;" horiz-adv-x="1131" />
<glyph unicode="&#xb0;" horiz-adv-x="819" />
<glyph unicode="&#xb1;" horiz-adv-x="1124" />
<glyph unicode="&#xb2;" horiz-adv-x="682" />
<glyph unicode="&#xb3;" horiz-adv-x="682" />
<glyph unicode="&#xb4;" horiz-adv-x="682" />
<glyph unicode="&#xb5;" horiz-adv-x="1180" />
<glyph unicode="&#xb6;" horiz-adv-x="1100" />
<glyph unicode="&#xb7;" horiz-adv-x="569" />
<glyph unicode="&#x2219;" horiz-adv-x="569" />
<glyph unicode="&#xb8;" horiz-adv-x="682" />
<glyph unicode="&#xb9;" horiz-adv-x="682" />
<glyph unicode="&#xba;" horiz-adv-x="748" />
<glyph unicode="&#xbb;" horiz-adv-x="1139" />
<glyph unicode="&#xbc;" horiz-adv-x="1708" />
<glyph unicode="&#xbd;" horiz-adv-x="1708" />
<glyph unicode="&#xbe;" horiz-adv-x="1708" />
<glyph unicode="&#xbf;" horiz-adv-x="1251" />
<glyph unicode="&#xc0;" horiz-adv-x="1366" />
<glyph unicode="&#xc1;" horiz-adv-x="1366" />
<glyph unicode="&#xc2;" horiz-adv-x="1366" />
<glyph unicode="&#xc3;" horiz-adv-x="1366" />
<glyph unicode="&#xc4;" horiz-adv-x="1366" />
<glyph unicode="&#xc5;" horiz-adv-x="1366" />
<glyph unicode="&#xc6;" horiz-adv-x="2048" />
<glyph unicode="&#xc7;" horiz-adv-x="1479" />
<glyph unicode="&#xc8;" horiz-adv-x="1366" />
<glyph unicode="&#xc9;" horiz-adv-x="1366" />
<glyph unicode="&#xca;" horiz-adv-x="1366" />
<glyph unicode="&#xcb;" horiz-adv-x="1366" />
<glyph unicode="&#xcc;" horiz-adv-x="569" />
<glyph unicode="&#xcd;" horiz-adv-x="569" />
<glyph unicode="&#xce;" horiz-adv-x="569" />
<glyph unicode="&#xcf;" horiz-adv-x="569" />
<glyph unicode="&#xd0;" horiz-adv-x="1479" />
<glyph unicode="&#xd1;" horiz-adv-x="1479" />
<glyph unicode="&#xd2;" horiz-adv-x="1593" />
<glyph unicode="&#xd3;" horiz-adv-x="1593" />
<glyph unicode="&#xd4;" horiz-adv-x="1593" />
<glyph unicode="&#xd5;" horiz-adv-x="1593" />
<glyph unicode="&#xd6;" horiz-adv-x="1593" />
<glyph unicode="&#xd7;" horiz-adv-x="1196" />
<glyph unicode="&#xd8;" horiz-adv-x="1593" />
<glyph unicode="&#xd9;" horiz-adv-x="1479" />
<glyph unicode="&#xda;" horiz-adv-x="1479" />
<glyph unicode="&#xdb;" horiz-adv-x="1479" />
<glyph unicode="&#xdc;" horiz-adv-x="1479" />
<glyph unicode="&#xdd;" horiz-adv-x="1366" />
<glyph unicode="&#xde;" horiz-adv-x="1366" />
<glyph unicode="&#xdf;" horiz-adv-x="1251" />
<glyph unicode="&#xe0;" horiz-adv-x="1139" />
<glyph unicode="&#xe1;" horiz-adv-x="1139" />
<glyph unicode="&#xe2;" horiz-adv-x="1139" />
<glyph unicode="&#xe3;" horiz-adv-x="1139" />
<glyph unicode="&#xe4;" horiz-adv-x="1139" />
<glyph unicode="&#xe5;" horiz-adv-x="1139" />
<glyph unicode="&#xe6;" horiz-adv-x="1821" />
<glyph unicode="&#xe7;" horiz-adv-x="1024" />
<glyph unicode="&#xe8;" horiz-adv-x="1139" />
<glyph unicode="&#xe9;" horiz-adv-x="1139" />
<glyph unicode="&#xea;" horiz-adv-x="1139" />
<glyph unicode="&#xeb;" horiz-adv-x="1139" />
<glyph unicode="&#xec;" horiz-adv-x="569" />
<glyph unicode="&#xed;" horiz-adv-x="569" />
<glyph unicode="&#xee;" horiz-adv-x="569" />
<glyph unicode="&#xef;" horiz-adv-x="569" />
<glyph unicode="&#xf0;" horiz-adv-x="1139" />
<glyph unicode="&#xf1;" horiz-adv-x="1139" />
<glyph unicode="&#xf2;" horiz-adv-x="1139" />
<glyph unicode="&#xf3;" horiz-adv-x="1139" />
<glyph unicode="&#xf4;" horiz-adv-x="1139" />
<glyph unicode="&#xf5;" horiz-adv-x="1139" />
<glyph unicode="&#xf6;" horiz-adv-x="1139" />
<glyph unicode="&#xf7;" horiz-adv-x="1124" />
<glyph unicode="&#xf8;" horiz-adv-x="1251" />
<glyph unicode="&#xf9;" horiz-adv-x="1139" />
<glyph unicode="&#xfa;" horiz-adv-x="1139" />
<glyph unicode="&#xfb;" horiz-adv-x="1139" />
<glyph unicode="&#xfc;" horiz-adv-x="1139" />
<glyph unicode="&#xfd;" horiz-adv-x="1024" />
<glyph unicode="&#xfe;" horiz-adv-x="1139" />
<glyph unicode="&#xff;" horiz-adv-x="1024" />
<glyph unicode="&#x152;" horiz-adv-x="2048" />
<glyph unicode="&#x153;" horiz-adv-x="1933" />
<glyph unicode="&#x178;" horiz-adv-x="1366" />
<glyph unicode="&#x2c6;" horiz-adv-x="682" />
<glyph unicode="&#x2dc;" horiz-adv-x="682" />
<glyph unicode="&#x2000;" horiz-adv-x="820" />
<glyph unicode="&#x2001;" horiz-adv-x="1641" />
<glyph unicode="&#x2002;" horiz-adv-x="820" />
<glyph unicode="&#x2003;" horiz-adv-x="1641" />
<glyph unicode="&#x2004;" horiz-adv-x="547" />
<glyph unicode="&#x2005;" horiz-adv-x="410" />
<glyph unicode="&#x2006;" horiz-adv-x="273" />
<glyph unicode="&#x2007;" horiz-adv-x="273" />
<glyph unicode="&#x2008;" horiz-adv-x="205" />
<glyph unicode="&#x2009;" horiz-adv-x="328" />
<glyph unicode="&#x200a;" horiz-adv-x="91" />
<glyph unicode="&#x2010;" horiz-adv-x="902" d="M287 942q0 68 88 68h152q88 0 88 -71v-115q0 -72 -90 -72h-154q-84 0 -83 75z" />
<glyph unicode="&#x2011;" horiz-adv-x="902" d="M287 942q0 68 88 68h152q88 0 88 -71v-115q0 -72 -90 -72h-154q-84 0 -83 75z" />
<glyph unicode="&#x2012;" horiz-adv-x="902" d="M287 942q0 68 88 68h152q88 0 88 -71v-115q0 -72 -90 -72h-154q-84 0 -83 75z" />
<glyph unicode="&#x2013;" horiz-adv-x="1139" />
<glyph unicode="&#x2014;" horiz-adv-x="2048" />
<glyph unicode="&#x2018;" horiz-adv-x="455" />
<glyph unicode="&#x2019;" horiz-adv-x="455" />
<glyph unicode="&#x201a;" horiz-adv-x="455" />
<glyph unicode="&#x201c;" horiz-adv-x="682" />
<glyph unicode="&#x201d;" horiz-adv-x="682" />
<glyph unicode="&#x201e;" horiz-adv-x="682" />
<glyph unicode="&#x2022;" horiz-adv-x="717" />
<glyph unicode="&#x2026;" horiz-adv-x="2048" />
<glyph unicode="&#x202f;" horiz-adv-x="328" />
<glyph unicode="&#x2039;" horiz-adv-x="682" />
<glyph unicode="&#x203a;" horiz-adv-x="682" />
<glyph unicode="&#x205f;" horiz-adv-x="410" />
<glyph unicode="&#x20ac;" horiz-adv-x="1139" />
<glyph unicode="&#x2122;" horiz-adv-x="2048" />
<glyph unicode="&#xe000;" horiz-adv-x="1630" d="M0 1630h1630v-1630h-1630v1630z" />
<glyph unicode="&#xf001;" horiz-adv-x="1024" />
<glyph unicode="&#xfb01;" horiz-adv-x="1024" />
<glyph unicode="&#xf002;" horiz-adv-x="1024" />
<glyph unicode="&#xfb02;" horiz-adv-x="1024" />
<glyph unicode="&#xfb03;" horiz-adv-x="2697" d="M2004 90v99q0 60 57 60h51q41 0 41 42v1090q0 45 -36 45h-56q-57 0 -57 55v93q0 67 57 67h384q55 0 55 -67v-93q0 -55 -55 -55h-56q-48 0 -48 -45v-1037q0 -95 35 -95h69q55 -1 55 -59v-100q0 -54 -55 -54h-384q-57 0 -57 54zM1009 71v1473q0 52 44 52h568q68 -3 68 -64 v-54q0 -77 -66 -78h-386q-37 0 -36 -43l1 -376q0 -45 59 -45h188q52 0 52 -68v-72q-4 -56 -52 -56h-200h-1q-47 0 -47 -64v-598q0 -74 -67 -74h-55q-70 1 -70 67zM110 71v1473q0 52 44 52h568q68 -3 68 -64v-54q0 -77 -66 -78h-386q-37 0 -36 -43l1 -376q0 -45 59 -45h188 q52 0 52 -68v-72q-4 -56 -52 -56h-200h-1q-47 0 -47 -64v-598q0 -74 -67 -74h-55q-70 1 -70 67z" />
<glyph unicode="&#xfb04;" horiz-adv-x="2700" d="M1910 88v1476q0 68 56 68h79q57 0 58 -64l-1 -1296q0 -40 48 -40h355q83 0 84 -57l-1 -67q1 -72 -82 -72h-540q-56 0 -56 52zM1009 71v1473q0 52 44 52h568q68 -3 68 -64v-54q0 -77 -66 -78h-386q-37 0 -36 -43l1 -376q0 -45 59 -45h188q52 0 52 -68v-72q-4 -56 -52 -56 h-200h-1q-47 0 -47 -64v-598q0 -74 -67 -74h-55q-70 1 -70 67zM110 71v1473q0 52 44 52h568q68 -3 68 -64v-54q0 -77 -66 -78h-386q-37 0 -36 -43l1 -376q0 -45 59 -45h188q52 0 52 -68v-72q-4 -56 -52 -56h-200h-1q-47 0 -47 -64v-598q0 -74 -67 -74h-55q-70 1 -70 67z" />
</font>
</defs>
</svg>
